<svg xmlns="http://www.w3.org/2000/svg" viewBox="0 0 512 512">
  <rect width="512" height="512" rx="112" fill="#7c3aed"/>
  <!-- Staff lines -->
  <line x1="72" y1="210" x2="440" y2="210" stroke="white" stroke-width="11" stroke-linecap="round" opacity="0.85"/>
  <line x1="72" y1="242" x2="440" y2="242" stroke="white" stroke-width="11" stroke-linecap="round" opacity="0.85"/>
  <line x1="72" y1="274" x2="440" y2="274" stroke="white" stroke-width="11" stroke-linecap="round" opacity="0.85"/>
  <line x1="72" y1="306" x2="440" y2="306" stroke="white" stroke-width="11" stroke-linecap="round" opacity="0.85"/>
  <line x1="72" y1="338" x2="440" y2="338" stroke="white" stroke-width="11" stroke-linecap="round" opacity="0.85"/>
  <!-- Note 1 (quarter note on line 5) -->
  <ellipse cx="160" cy="334" rx="21" ry="15" fill="white" transform="rotate(-18 160 334)"/>
  <line x1="179" y1="323" x2="179" y2="210" stroke="white" stroke-width="10" stroke-linecap="round"/>
  <!-- Note 2 (quarter note on line 3) -->
  <ellipse cx="272" cy="270" rx="21" ry="15" fill="white" transform="rotate(-18 272 270)"/>
  <line x1="291" y1="259" x2="291" y2="146" stroke="white" stroke-width="10" stroke-linecap="round"/>
  <!-- Note 3 (eighth note on line 2) -->
  <ellipse cx="376" cy="238" rx="21" ry="15" fill="white" transform="rotate(-18 376 238)"/>
  <line x1="395" y1="227" x2="395" y2="114" stroke="white" stroke-width="10" stroke-linecap="round"/>
  <!-- Flag -->
  <path d="M395 114 Q445 140 430 185" stroke="white" stroke-width="10" fill="none" stroke-linecap="round" stroke-linejoin="round"/>
</svg>
